<?xml version="1.0" standalone="no"?>
<!DOCTYPE svg PUBLIC "-//W3C//DTD SVG 1.1//EN" "http://www.w3.org/Graphics/SVG/1.1/DTD/svg11.dtd">
<svg xmlns="http://www.w3.org/2000/svg" id="full_logo_all_in" data-name="full logo all in" viewBox="0 0 99.36 65.48" width="99.36000061035156" height="65.4800033569336"><defs><style>.cls-1{fill:#020202;}.cls-2{fill:#fff;}.cls-3{fill:#f9f9f9;}</style></defs><g id="shay_sblog" data-name="shay'sblog"><path d="M333.23,431a.43.43,0,0,1-.24-.4.39.39,0,0,1,.11-.29.36.36,0,0,1,.29-.16c.09,0,.57.05,1.43.16l2.9.24.89,0a19.11,19.11,0,0,0,2.51-.18,7.47,7.47,0,0,0,2.93-1,1.87,1.87,0,0,0,1-1.52.5.5,0,0,0,0-.16,2.28,2.28,0,0,0-1.16-1.65,31,31,0,0,0-3.43-1.94,17.85,17.85,0,0,1-3.19-1.91,4.39,4.39,0,0,1-1.61-2.4,4.74,4.74,0,0,1-.17-1.23,5,5,0,0,1,.27-1.6,10.16,10.16,0,0,1,1.43-2.77,12.08,12.08,0,0,1,2.35-2.45,11.66,11.66,0,0,1,2.87-1.66,8.36,8.36,0,0,1,2.48-.62h.4a5.47,5.47,0,0,1,2,.38,3.75,3.75,0,0,1,1.77,1.52,3.4,3.4,0,0,1,.46,1.41,3.73,3.73,0,0,1,.05.64,2.54,2.54,0,0,1-.05.59c0,.3-.16.77-.32,1.42a9.88,9.88,0,0,1-.46,1.49.38.38,0,0,1-.45.21.36.36,0,0,1-.33-.34,1.89,1.89,0,0,1,0-.31,1.76,1.76,0,0,1,.08-.37c0-.14.09-.37.18-.71s.18-.7.27-1.07a4.79,4.79,0,0,0,.11-1,3.12,3.12,0,0,0-.32-1.39,2.88,2.88,0,0,0-1.91-1.41,4.56,4.56,0,0,0-1.11-.14,6,6,0,0,0-2,.38,9.48,9.48,0,0,0-3.07,1.75,13.35,13.35,0,0,0-2.39,2.64,7,7,0,0,0-1.24,2.79,4.61,4.61,0,0,0-.08.8,3.13,3.13,0,0,0,.24,1.25A3.72,3.72,0,0,0,338,421.6a15.72,15.72,0,0,0,1.87,1.16l2.4,1.25a18.27,18.27,0,0,1,2.42,1.5,3.2,3.2,0,0,1,1,1,2.57,2.57,0,0,1-.06,2.69,3.54,3.54,0,0,1-1.42,1.22,9.07,9.07,0,0,1-2.61.87,20.62,20.62,0,0,1-2.72.16c-.61,0-1.28,0-2-.06A13.73,13.73,0,0,1,333.23,431Z" transform="translate(-332.99 -381.47)"/><path d="M358.42,420.41a.67.67,0,0,1,.49-.27.33.33,0,0,1,.33.24.61.61,0,0,1-.09.54c-.81,1.08-1.33,1.75-1.55,2a11.74,11.74,0,0,1-1.14,1.08,1.78,1.78,0,0,1-.84.43,1.18,1.18,0,0,1-.37.05,1.71,1.71,0,0,1-.57-.1,1.24,1.24,0,0,1-.7-.75,4.06,4.06,0,0,1-.19-1.17,3.06,3.06,0,0,1,.08-.7c.16-.51.34-1.11.54-1.79a4.26,4.26,0,0,0,.22-1.2,1.44,1.44,0,0,0-.06-.43c-.05-.21-.15-.32-.29-.32s-.49.2-.87.59a22.82,22.82,0,0,0-3.68,6.14s0,0-.06.07a.39.39,0,0,1,0,.09l-.05.11c0,.05-.05.09-.07.1a.38.38,0,0,1-.09.08c-.05,0-.08.06-.11.06l-.12,0a.18.18,0,0,1-.16,0,.44.44,0,0,1-.34-.38,1.16,1.16,0,0,1,.07-.58c.48-2.32,1.11-4.82,1.87-7.52s1.38-4.7,1.84-6a.5.5,0,0,1,.81-.18.45.45,0,0,1,.13.34.39.39,0,0,1,0,.14c-.38,1.15-.61,1.9-.7,2.24q-.27.93-2.07,7.58a1.16,1.16,0,0,1,0,.16l.05,0a29.55,29.55,0,0,1,2.05-3,2.57,2.57,0,0,1,1.69-1h0a1.23,1.23,0,0,1,1.1.88,2,2,0,0,1,.11.75,8.23,8.23,0,0,1-.29,1.87,9,9,0,0,0-.41,2.21,2.17,2.17,0,0,0,0,.38q.07.48.54.3a3.21,3.21,0,0,0,.93-.58,6,6,0,0,0,.72-.74c.17-.21.41-.54.72-1S358.35,420.5,358.42,420.41Z" transform="translate(-332.99 -381.47)"/><path d="M366.23,420.78a.41.41,0,0,1,.63-.08.39.39,0,0,1,.09.62,13.49,13.49,0,0,1-2.07,2.29,3.09,3.09,0,0,1-1.7.72,1,1,0,0,1-.37-.05,1.51,1.51,0,0,1-1-1.36v-1.07l-1.8,1.66a2,2,0,0,1-1.32.61,1,1,0,0,1-.92-.8,2.44,2.44,0,0,1-.05-.51,4.2,4.2,0,0,1,.37-1.57,9.09,9.09,0,0,1,1.4-2.36,4.4,4.4,0,0,1,1.65-1.38,3,3,0,0,1,1.13-.27,1.19,1.19,0,0,1,1.21.94,1.58,1.58,0,0,1,.09.42c0,.15,0,.27,0,.37a1.58,1.58,0,0,1-.05.38c0,.16-.06.27-.08.34l-.12.34a1.84,1.84,0,0,0-.1.31,6.82,6.82,0,0,0-.4,2.11v.21c0,.5.16.75.43.75a.75.75,0,0,0,.3-.08A8.25,8.25,0,0,0,366.23,420.78Zm-3.83-.72a.93.93,0,0,0,.27-.58,2.78,2.78,0,0,0,.06-.54,1,1,0,0,0-.06-.37.55.55,0,0,0-.11-.27.43.43,0,0,0-.37-.19,2,2,0,0,0-1.13.56,7.17,7.17,0,0,0-2.21,3.53,2,2,0,0,0-.11.61,1.29,1.29,0,0,0,.06.4,6.27,6.27,0,0,0,.95-.65c.26-.22.63-.58,1.12-1.06S361.87,420.54,362.4,420.06Z" transform="translate(-332.99 -381.47)"/><path d="M374,420.33a.3.3,0,0,1,.19-.05.46.46,0,0,1,.33.13.44.44,0,0,1-.14.75,16,16,0,0,0-2.72,1.49.91.91,0,0,0-.43.64c0,.11-.08.45-.19,1s-.19,1-.24,1.17-.15.59-.27,1.14a9.77,9.77,0,0,1-.34,1.21c-.1.26-.23.62-.39,1.07a4.66,4.66,0,0,1-.51,1.07c-.18.26-.38.53-.61.83a2.75,2.75,0,0,1-.75.7,3.41,3.41,0,0,1-.87.4,2.73,2.73,0,0,1-.7.11,1.53,1.53,0,0,1-1-.32,1.87,1.87,0,0,1-.62-1.49,4.66,4.66,0,0,1,.21-1.29q.9-3,4.9-6.05l.22-.2a1.58,1.58,0,0,0,.13-.18,1,1,0,0,0,.11-.28c0-.13.07-.25.09-.35s.07-.28.13-.56.09-.52.13-.73l-.05,0c-.06.07-.22.34-.48.79a7.93,7.93,0,0,1-.55.88c-.1.13-.27.35-.49.66a4.12,4.12,0,0,1-.66.7,3.92,3.92,0,0,1-.7.44,1.23,1.23,0,0,1-.6.16,1.07,1.07,0,0,1-.75-.32,1.68,1.68,0,0,1-.46-1.28,5.55,5.55,0,0,1,0-.56,15.8,15.8,0,0,1,1.59-4.43.55.55,0,0,1,.59-.37.37.37,0,0,1,.35.42,15.16,15.16,0,0,1-.62,1.93,11.5,11.5,0,0,0-.89,3.17c0,.29.08.43.24.43a1.38,1.38,0,0,0,1.05-.69c.34-.47,1-1.51,1.94-3.13.4-.67.71-1.21.94-1.6a1.15,1.15,0,0,1,.13-.21,1,1,0,0,1,.16-.18c.08-.08.14-.11.2-.09a.93.93,0,0,0,.29,0,.41.41,0,0,1,.31.28,1.32,1.32,0,0,1,0,.58c0,.26-.09.53-.16.82s-.17.67-.27,1.16-.19,1-.25,1.45a2.9,2.9,0,0,0,.41-.21c.25-.14.56-.32.94-.52S373.71,420.47,374,420.33Zm-4,3.79V424l-.48.36a11.36,11.36,0,0,0-1.06,1,15.61,15.61,0,0,0-1.24,1.41,7.72,7.72,0,0,0-1,1.72,4.89,4.89,0,0,0-.46,1.87.71.71,0,0,0,.38.66.91.91,0,0,0,.39.08,1,1,0,0,0,.42-.1,2.8,2.8,0,0,0,.86-.6,4.22,4.22,0,0,0,.73-1.09c.21-.44.39-.84.53-1.2a9.81,9.81,0,0,0,.44-1.44c.14-.6.24-1,.29-1.28S369.89,424.67,370,424.12Z" transform="translate(-332.99 -381.47)"/><path d="M376.88,412.32a.82.82,0,0,1-.41.5.35.35,0,0,1-.43-.12.59.59,0,0,1-.1-.54c.29-1.46.45-2.23.48-2.32a.44.44,0,0,1,.48-.29.43.43,0,0,1,.41.4s0,.18,0,.45a7.51,7.51,0,0,1-.15,1A5.91,5.91,0,0,1,376.88,412.32Z" transform="translate(-332.99 -381.47)"/><path d="M382.64,422.12c0,.07,0,.1,0,.1a1.85,1.85,0,0,1,.32,1.07,2.42,2.42,0,0,1-.29,1.15,2.58,2.58,0,0,1-.89.91,2.61,2.61,0,0,1-1.29.4h-.06a1.26,1.26,0,0,1-1-.4,1.1,1.1,0,0,1-.3-.78,1.82,1.82,0,0,1,0-.32,2.69,2.69,0,0,1,.83-1.38l.81-.75a1.63,1.63,0,0,0-.24-.19,2.43,2.43,0,0,1-.92-1.41,2.49,2.49,0,0,1-.05-.46,2.62,2.62,0,0,1,.32-1.22,3.34,3.34,0,0,1,1.27-1.34,2,2,0,0,1,1-.32,1.49,1.49,0,0,1,.54.11,1,1,0,0,1,.65.54,1.09,1.09,0,0,1,.08.76.4.4,0,0,1-.43.33.33.33,0,0,1-.31-.17,1,1,0,0,1-.12-.32.42.42,0,0,0-.18-.26c-.1-.07-.24-.06-.44,0a2.06,2.06,0,0,0-1.27,1.26,1.94,1.94,0,0,0-.1.61,1.24,1.24,0,0,0,.43.94s.28.18.72.5a10.92,10.92,0,0,1,3.31-1.17h.11a.46.46,0,0,1,.34.15.47.47,0,0,1-.26.81A16.36,16.36,0,0,0,382.64,422.12Zm-.86,1.63a1.35,1.35,0,0,0,.08-.43.94.94,0,0,0-.21-.61c-1,.67-1.52,1.25-1.54,1.73,0,.29.17.38.51.29A1.49,1.49,0,0,0,381.78,423.75Z" transform="translate(-332.99 -381.47)"/><path d="M400.67,411.12a28.73,28.73,0,0,0-5.06,1.7c-1.41.65-2.15,1.13-2.2,1.45a.41.41,0,0,1-.57.37c-.29-.05-.43-.2-.43-.45a.74.74,0,0,0,0-.19c.35-.69,1.47-1.44,3.37-2.25a27.52,27.52,0,0,1,5-1.67c.26,0,.42-.12.49-.27s.3-.24.54-.08a.34.34,0,0,0,.24.11.23.23,0,0,0,.11,0,21.43,21.43,0,0,1,3.58-.34,7.25,7.25,0,0,1,3.68.77,1.47,1.47,0,0,1,.73,2.24,3,3,0,0,1-.92,1c-.53.45-1,.78-1.26,1s-.58.42-.83.58l-1.71,1.09-2.9,1.87v.08l.58.05.8.08.86.12c.39.07.72.12,1,.18s.6.13,1,.24a8.63,8.63,0,0,1,1,.35,7.65,7.65,0,0,1,.91.45,6.14,6.14,0,0,1,.88.59,3.51,3.51,0,0,1,1.45,2.77,4.75,4.75,0,0,1-.62,2.19,13.4,13.4,0,0,1-5.49,5.07,25.38,25.38,0,0,1-8.74,3,15,15,0,0,1-2.32.19h-.24a6.18,6.18,0,0,1-1.94-.32,3.94,3.94,0,0,1-1.24-.72,1.49,1.49,0,0,1-.51-1.15,2.82,2.82,0,0,1,.32-1.23,5.13,5.13,0,0,1,1.19-1.45,12.05,12.05,0,0,1,2.15-1.54l1.27-.72.86-.45.48-.24a.69.69,0,0,0,.28-.2.57.57,0,0,0,.1-.26q.81-4.11,1.95-7.9a57.08,57.08,0,0,1,2.06-5.9C400.64,411.26,400.65,411.19,400.67,411.12Zm-4.38,15.56a9.4,9.4,0,0,0-1.63.79,14.89,14.89,0,0,0-2,1.35c-1.15.92-1.73,1.68-1.73,2.27a.94.94,0,0,0,.54.8,4.49,4.49,0,0,0,2.32.48,17.46,17.46,0,0,0,3-.32,26.52,26.52,0,0,0,3.5-.91,23.4,23.4,0,0,0,3.28-1.39,22,22,0,0,0,2.77-1.65,13.47,13.47,0,0,0,2.09-1.79,7.7,7.7,0,0,0,1.31-1.82,3.63,3.63,0,0,0,.35-1.49v-.24a2.47,2.47,0,0,0-.7-1.47,5.64,5.64,0,0,0-1.94-1.24,9.68,9.68,0,0,0-2.24-.65c-.68-.11-1.37-.2-2.08-.28a12.17,12.17,0,0,1-1.31-.2.56.56,0,0,1-.48-.57,1.25,1.25,0,0,1,.56-.88c.63-.48,1.56-1.1,2.8-1.88s2.27-1.45,3.08-2a6.28,6.28,0,0,0,1.63-1.52.75.75,0,0,0,.14-.37c0-.4-.47-.7-1.4-.91a11,11,0,0,0-2.53-.27,20.86,20.86,0,0,0-3.58.35.47.47,0,0,0-.35.29c-.85,2.14-1.57,4.2-2.18,6.19s-1.24,4.54-1.89,7.64c.2-.06.57-.18,1.11-.39l2.69-1c1.26-.45,2.71-.95,4.36-1.48a1.84,1.84,0,0,1,.48-.08.45.45,0,0,1,.49.35.44.44,0,0,1,0,.16c0,.23-.17.41-.53.53l-1.86.62c-2.12.69-3.58,1.2-4.39,1.52l-2.34.85,0,0a.48.48,0,0,0-.29.36c-.06.19-.16.81-.32,1.88-.09.53-.17,1-.22,1.31s0,.45-.08.72-.06.46-.07.57a2.14,2.14,0,0,1-.06.35.39.39,0,0,1-.17.23.68.68,0,0,1-.27.05c-.26,0-.4-.2-.4-.53S395.91,429.16,396.29,426.68Z" transform="translate(-332.99 -381.47)"/><path d="M417.63,420.68a.42.42,0,0,1,.63-.15.4.4,0,0,1,.15.63c-.49.76-.89,1.38-1.21,1.84a3.06,3.06,0,0,1-1.24,1.12,2.09,2.09,0,0,1-1,.29,1.58,1.58,0,0,1-1.19-.53,3.53,3.53,0,0,1-.83-2.59,13.13,13.13,0,0,1,.48-3.2q1.19-4.54,2.1-7.29a.51.51,0,0,1,.51-.35.5.5,0,0,1,.37.15.52.52,0,0,1,.14.36.44.44,0,0,1,0,.13c-.06.18-.32,1.08-.78,2.69s-.84,3-1.12,4.07a24.37,24.37,0,0,0-.53,2.53,7,7,0,0,0-.05.83,8.58,8.58,0,0,0,.08,1.07,1.53,1.53,0,0,0,.38.88.73.73,0,0,0,.48.19,1,1,0,0,0,.33-.06,1,1,0,0,0,.31-.12l.3-.22.29-.24a3.52,3.52,0,0,0,.28-.32c.11-.15.19-.25.24-.33s.14-.19.26-.37.19-.29.23-.35l.24-.36Z" transform="translate(-332.99 -381.47)"/><path d="M424.41,420.25a.41.41,0,0,1,.62.11.38.38,0,0,1-.08.61,6.67,6.67,0,0,1-1.68,1,7.94,7.94,0,0,1-1.82.29,3.62,3.62,0,0,1-1.08,1.39,2.06,2.06,0,0,1-1.21.48h0a1.67,1.67,0,0,1-1-.34,1.76,1.76,0,0,1-.62-1c0-.23,0-.44,0-.64a4.18,4.18,0,0,1,0-.51,3.53,3.53,0,0,1,.16-.69.81.81,0,0,0-.06-.57,3.69,3.69,0,0,1-.21-.79.63.63,0,0,1,0-.16,2.28,2.28,0,0,1,.27-.91,1.62,1.62,0,0,1,1.5-1l.14,0a.67.67,0,0,0,.51-.22c.3-.35.56-.53.78-.53a.32.32,0,0,1,.27.13.44.44,0,0,1,.09.11.19.19,0,0,1,0,.12v.12a.19.19,0,0,1,0,.12l-.05.11-.08.12a.78.78,0,0,0-.08.1.58.58,0,0,1-.1.12l-.1.12a3.62,3.62,0,0,1,1.23,2.78,5,5,0,0,1,0,.53A4.52,4.52,0,0,0,424.41,420.25Zm-5.81,1.25a3.06,3.06,0,0,0-.11.75.88.88,0,0,0,.21.67.74.74,0,0,0,.46.19,1.16,1.16,0,0,0,.51-.14,1.34,1.34,0,0,0,.7-.83l-.89-.25Zm2.09-.26a1.77,1.77,0,0,0,.09-.56,2.57,2.57,0,0,0-.17-.86,1.76,1.76,0,0,0-.75-1,6.76,6.76,0,0,0-.94,1.68A3.61,3.61,0,0,0,420.69,421.24Z" transform="translate(-332.99 -381.47)"/><path d="M431.62,420.6a.35.35,0,0,1,.24-.08.48.48,0,0,1,.34.13.44.44,0,0,1,.15.35.42.42,0,0,1-.1.28,1.44,1.44,0,0,1-.35.28l-.56.32a9.33,9.33,0,0,0-.9.53c-.4.25-.79.52-1.19.8a1,1,0,0,0-.4.59,29.66,29.66,0,0,1-2.1,6.19,2.79,2.79,0,0,1-1.8,1.68.89.89,0,0,1-.3.06,1,1,0,0,1-.94-.78,2.11,2.11,0,0,1-.14-.77,7.39,7.39,0,0,1,1.51-3.74,18.81,18.81,0,0,1,1.37-1.75l1-1.08a1.46,1.46,0,0,0,.42-.66c0-.11.16-.64.43-1.58l-.05,0c-.61.73-1.18,1.38-1.7,2a2.56,2.56,0,0,1-1.64,1h-.13c-.49-.07-.78-.43-.87-1.09,0-.14,0-.29,0-.45a5.49,5.49,0,0,1,.56-2.22,7.82,7.82,0,0,1,1.89-2.48,3.08,3.08,0,0,1,1.93-.86l.3,0a1.49,1.49,0,0,1,.91.49,1.4,1.4,0,0,1,.38,1v.06a12.25,12.25,0,0,1-.13,1.29c-.07.46-.15.87-.23,1.23a5.74,5.74,0,0,0-.12.63,12.32,12.32,0,0,1,1.09-.64Zm-4.9,6.19.49-1.47-.06,0a17.26,17.26,0,0,0-1.64,2.17,6.74,6.74,0,0,0-.63,1.17,4.75,4.75,0,0,0-.36,1.26,1.09,1.09,0,0,0,0,.26.7.7,0,0,0,.21.56.79.79,0,0,0,.49-.42,10.28,10.28,0,0,0,.71-1.25C426,428.79,426.29,428,426.72,426.79Zm2.21-7.8v-.07a.72.72,0,0,0-.27-.63.68.68,0,0,0-.67-.07,3.78,3.78,0,0,0-1.68,1.35,6.81,6.81,0,0,0-1.17,2.15,3.28,3.28,0,0,0-.22,1.07,1.12,1.12,0,0,0,.11.5,3,3,0,0,0,.89-.65,11.76,11.76,0,0,0,.92-1c.26-.32.56-.72.89-1.18s.52-.72.55-.75Z" transform="translate(-332.99 -381.47)"/></g><g id="nothingness"><path d="M368.22,441.78a1,1,0,0,0-.83.39,1.84,1.84,0,0,0-.31,1.17V445a.06.06,0,0,1-.07.07h-.41c-.05,0-.07,0-.07-.07v-3.48c0-.05,0-.07.07-.07h.27c.05,0,.07,0,.07.05l.1.64a1.27,1.27,0,0,1,.51-.6,1.66,1.66,0,0,1,.8-.19,1.54,1.54,0,0,1,.67.13,1.44,1.44,0,0,1,.49.34,1.36,1.36,0,0,1,.29.49,1.67,1.67,0,0,1,.11.59V445c0,.05,0,.07-.08.07h-.4c-.05,0-.08,0-.08-.07v-2.1a1.07,1.07,0,0,0-.3-.8A1.13,1.13,0,0,0,368.22,441.78Z" transform="translate(-332.99 -381.47)"/><path d="M370.57,443.23a2.35,2.35,0,0,1,.12-.77,2,2,0,0,1,.35-.6,1.5,1.5,0,0,1,.54-.39,1.92,1.92,0,0,1,1.39,0,1.5,1.5,0,0,1,.54.39,1.77,1.77,0,0,1,.34.6,2.35,2.35,0,0,1,.12.77,2.43,2.43,0,0,1-.12.79,1.68,1.68,0,0,1-.34.6,1.5,1.5,0,0,1-.54.39,1.8,1.8,0,0,1-1.39,0,1.5,1.5,0,0,1-.54-.39,1.86,1.86,0,0,1-.35-.6A2.43,2.43,0,0,1,370.57,443.23Zm.55,0a1.87,1.87,0,0,0,.08.59,1.33,1.33,0,0,0,.23.46,1,1,0,0,0,.36.31,1.09,1.09,0,0,0,.48.1,1,1,0,0,0,.47-.1,1,1,0,0,0,.37-.31,1.33,1.33,0,0,0,.23-.46,1.87,1.87,0,0,0,.09-.59,1.83,1.83,0,0,0-.09-.59,1.37,1.37,0,0,0-.23-.45,1.05,1.05,0,0,0-.84-.39,1.09,1.09,0,0,0-.48.1,1,1,0,0,0-.36.29,1.37,1.37,0,0,0-.23.45A1.83,1.83,0,0,0,371.12,443.23Z" transform="translate(-332.99 -381.47)"/><path d="M375.43,440.26v1.18h1.14a.06.06,0,0,1,.07.07v.33a.07.07,0,0,1-.07.07h-1.14v2.22a.68.68,0,0,0,.05.27.51.51,0,0,0,.34.28l.21,0a.75.75,0,0,0,.31-.06l.25-.12a.05.05,0,0,1,.08,0l.21.27s0,.06,0,.1l-.3.15a1.21,1.21,0,0,1-.54.1,1.62,1.62,0,0,1-.54-.08.92.92,0,0,1-.36-.22.79.79,0,0,1-.2-.33,1.77,1.77,0,0,1-.05-.41v-2.22h-.58a.07.07,0,0,1-.07-.07v-.26s0-.06.07-.07l.58-.07.07-1.19c0-.05,0-.07.07-.07h.33A.07.07,0,0,1,375.43,440.26Z" transform="translate(-332.99 -381.47)"/><path d="M379.23,441.81a1.2,1.2,0,0,0-.42.08.79.79,0,0,0-.37.24,1.37,1.37,0,0,0-.26.43,2,2,0,0,0-.09.65V445c0,.05,0,.07-.08.07h-.4c-.05,0-.07,0-.07-.07V439.7a.06.06,0,0,1,.07-.07h.4a.07.07,0,0,1,.08.07v2.39a1.19,1.19,0,0,1,.52-.54,1.49,1.49,0,0,1,.75-.18,1.74,1.74,0,0,1,.67.12,1.54,1.54,0,0,1,.48.34,1.34,1.34,0,0,1,.3.48,1.57,1.57,0,0,1,.1.58V445c0,.05,0,.07-.07.07h-.4c-.05,0-.08,0-.08-.07v-2.1a1.14,1.14,0,0,0-.07-.41,1.08,1.08,0,0,0-.23-.34,1.13,1.13,0,0,0-.36-.24A1.19,1.19,0,0,0,379.23,441.81Z" transform="translate(-332.99 -381.47)"/><path d="M381.78,440a.3.3,0,0,1,.09-.23.28.28,0,0,1,.22-.09.32.32,0,0,1,.23.09.34.34,0,0,1,.08.23.36.36,0,0,1-.08.24.32.32,0,0,1-.23.09.28.28,0,0,1-.22-.09A.32.32,0,0,1,381.78,440Zm.15,5.11c-.05,0-.07,0-.07-.07V441.5c0-.05,0-.07.07-.07h.34c.05,0,.07,0,.07.07V445c0,.05,0,.07-.07.07Z" transform="translate(-332.99 -381.47)"/><path d="M385,441.78a1,1,0,0,0-.83.39,1.84,1.84,0,0,0-.31,1.17V445c0,.05,0,.07-.07.07h-.41s-.07,0-.07-.07v-3.48c0-.05,0-.07.07-.07h.27c.05,0,.07,0,.07.05l.1.64a1.27,1.27,0,0,1,.51-.6,1.67,1.67,0,0,1,.81-.19,1.53,1.53,0,0,1,.66.13,1.37,1.37,0,0,1,.78.83,1.67,1.67,0,0,1,.11.59V445c0,.05,0,.07-.08.07h-.4c-.05,0-.07,0-.07-.07v-2.1a1.08,1.08,0,0,0-.31-.8A1.13,1.13,0,0,0,385,441.78Z" transform="translate(-332.99 -381.47)"/><path d="M387.63,446.45a.09.09,0,0,1,0-.07l.19-.25c0-.05.08-.05.12,0a.48.48,0,0,0,.13.09,1,1,0,0,0,.21.1,1.07,1.07,0,0,0,.3.09,2.21,2.21,0,0,0,.39,0,1.34,1.34,0,0,0,.62-.12.88.88,0,0,0,.34-.28.72.72,0,0,0,.15-.32,1.8,1.8,0,0,0,0-.27v-.88a1.33,1.33,0,0,1-.49.42,1.4,1.4,0,0,1-.66.15,1.75,1.75,0,0,1-.7-.13,1.56,1.56,0,0,1-.53-.38,1.65,1.65,0,0,1-.35-.59,2.35,2.35,0,0,1-.12-.77,2.47,2.47,0,0,1,.12-.79,1.65,1.65,0,0,1,.35-.59,1.44,1.44,0,0,1,.53-.38,1.75,1.75,0,0,1,.7-.14,1.39,1.39,0,0,1,1.18.62l.05-.49a.07.07,0,0,1,.07-.06h.3c.05,0,.07,0,.07.07v4a1.63,1.63,0,0,1-.11.59,1.31,1.31,0,0,1-.32.47,1.67,1.67,0,0,1-.52.31,2.19,2.19,0,0,1-.7.1,2,2,0,0,1-.71-.1,1.56,1.56,0,0,1-.43-.21A1.52,1.52,0,0,1,387.63,446.45Zm1.34-1.76a1,1,0,0,0,.79-.34,1.53,1.53,0,0,0,.35-.91v-.37a1.56,1.56,0,0,0-.35-.92,1,1,0,0,0-.79-.35,1.06,1.06,0,0,0-.48.1,1.08,1.08,0,0,0-.37.31,1.33,1.33,0,0,0-.23.46,1.87,1.87,0,0,0-.08.59,1.83,1.83,0,0,0,.08.59,1.37,1.37,0,0,0,.23.45,1.13,1.13,0,0,0,.37.29A1.06,1.06,0,0,0,389,444.69Z" transform="translate(-332.99 -381.47)"/><path d="M393.19,441.78a1,1,0,0,0-.83.39,1.84,1.84,0,0,0-.31,1.17V445c0,.05,0,.07-.07.07h-.41a.06.06,0,0,1-.07-.07v-3.48a.06.06,0,0,1,.07-.07h.27c.05,0,.07,0,.07.05l.1.64a1.29,1.29,0,0,1,.52-.6,1.63,1.63,0,0,1,.8-.19,1.53,1.53,0,0,1,.66.13,1.34,1.34,0,0,1,.49.34,1.54,1.54,0,0,1,.3.49,1.92,1.92,0,0,1,.1.59V445a.06.06,0,0,1-.07.07h-.41s-.07,0-.07-.07v-2.1a1.07,1.07,0,0,0-.3-.8A1.14,1.14,0,0,0,393.19,441.78Z" transform="translate(-332.99 -381.47)"/><path d="M399.1,443.39s0,.07-.07.07h-2.72a1.39,1.39,0,0,0,.15.5,1.23,1.23,0,0,0,.27.39,1.2,1.2,0,0,0,.83.34,1.63,1.63,0,0,0,.47-.06,1.8,1.8,0,0,0,.31-.15,1.41,1.41,0,0,0,.24-.2l.23.27s0,.06,0,.1a1.92,1.92,0,0,1-.21.16,1.78,1.78,0,0,1-.27.17,1.7,1.7,0,0,1-.34.12,1.86,1.86,0,0,1-.42,0,1.89,1.89,0,0,1-.72-.14,1.71,1.71,0,0,1-1-1,2.18,2.18,0,0,1-.14-.79,2.35,2.35,0,0,1,.12-.77,1.79,1.79,0,0,1,.35-.6,1.38,1.38,0,0,1,.53-.39,1.78,1.78,0,0,1,.7-.13,1.83,1.83,0,0,1,.66.11,1.26,1.26,0,0,1,.53.36,1.61,1.61,0,0,1,.36.63A2.72,2.72,0,0,1,399.1,443.39Zm-.58-.4a1.61,1.61,0,0,0-.1-.53,1,1,0,0,0-.23-.37.83.83,0,0,0-.34-.22,1.07,1.07,0,0,0-.41-.07,1,1,0,0,0-.77.32,1.44,1.44,0,0,0-.36.87Z" transform="translate(-332.99 -381.47)"/><path d="M402.22,441.61l0,0a.07.07,0,0,1,0,.06l-.16.28s-.06,0-.11,0a2.49,2.49,0,0,0-.32-.13,1.85,1.85,0,0,0-.49-.09l-.28,0a1.29,1.29,0,0,0-.28.08.58.58,0,0,0-.21.17.37.37,0,0,0-.09.25.33.33,0,0,0,.11.27,1.27,1.27,0,0,0,.27.18l.3.1.21.06.31.11a2,2,0,0,1,.41.21,1.53,1.53,0,0,1,.37.35.86.86,0,0,1,.16.51.94.94,0,0,1-.11.45,1.12,1.12,0,0,1-.32.33,1.44,1.44,0,0,1-.49.2,2.5,2.5,0,0,1-.63.06,2,2,0,0,1-.71-.14,2.29,2.29,0,0,1-.45-.24s-.05-.06,0-.1l.2-.28s.06-.05.1,0l.15.07a.67.67,0,0,0,.21.09,1.6,1.6,0,0,0,.26.08.88.88,0,0,0,.29,0,1.45,1.45,0,0,0,.36,0,.7.7,0,0,0,.3-.09.55.55,0,0,0,.21-.19.42.42,0,0,0,.08-.28.39.39,0,0,0-.1-.27,1.18,1.18,0,0,0-.27-.2,2.21,2.21,0,0,0-.35-.16l-.36-.12a2.75,2.75,0,0,1-.36-.15,1.27,1.27,0,0,1-.34-.2,1,1,0,0,1-.24-.29.79.79,0,0,1-.09-.38.74.74,0,0,1,.12-.42,1,1,0,0,1,.31-.3,1.85,1.85,0,0,1,.45-.19,2.24,2.24,0,0,1,.52-.06,1.81,1.81,0,0,1,.62.09Z" transform="translate(-332.99 -381.47)"/><path d="M405.53,441.61l0,0a.07.07,0,0,1,0,.06l-.16.28a.07.07,0,0,1-.1,0l-.33-.13a1.78,1.78,0,0,0-.49-.09l-.27,0a1.15,1.15,0,0,0-.28.08.62.62,0,0,0-.22.17.37.37,0,0,0-.09.25.33.33,0,0,0,.11.27,1.27,1.27,0,0,0,.27.18l.31.1.2.06.31.11a1.77,1.77,0,0,1,.41.21,1.53,1.53,0,0,1,.37.35.8.8,0,0,1,.16.51.94.94,0,0,1-.11.45,1,1,0,0,1-.32.33,1.44,1.44,0,0,1-.49.2,2.46,2.46,0,0,1-.62.06,2,2,0,0,1-.72-.14,2.29,2.29,0,0,1-.45-.24.07.07,0,0,1,0-.1l.2-.28s.06-.05.1,0l.15.07a.67.67,0,0,0,.21.09l.26.08a.93.93,0,0,0,.29,0,1.45,1.45,0,0,0,.36,0,.66.66,0,0,0,.3-.09.55.55,0,0,0,.21-.19.42.42,0,0,0,.08-.28.39.39,0,0,0-.1-.27,1.18,1.18,0,0,0-.27-.2,1.87,1.87,0,0,0-.35-.16l-.36-.12a2.75,2.75,0,0,1-.36-.15,1.21,1.21,0,0,1-.33-.2,1.16,1.16,0,0,1-.25-.29.79.79,0,0,1-.09-.38.74.74,0,0,1,.12-.42,1,1,0,0,1,.31-.3,1.85,1.85,0,0,1,.45-.19,2.31,2.31,0,0,1,.52-.06,1.81,1.81,0,0,1,.62.09A4,4,0,0,1,405.53,441.61Z" transform="translate(-332.99 -381.47)"/></g><path class="cls-1" d="M389.37,382.59c-1.46-1.67-4.57-.7-6.53-1-1.16-.17-2.35-.38-3.35.45s-1.1,2.15-1.19,3.37l-.71,9.34-.23,3.08a10.9,10.9,0,0,0,.06,3,3.65,3.65,0,0,0,1.59,2.46,5.43,5.43,0,0,0,2.77.52l3.86,0a5.3,5.3,0,0,0,3.34-.72c1.07-.83,1.33-2.32,1.48-3.67a46.83,46.83,0,0,0-.21-14.76A4.46,4.46,0,0,0,389.37,382.59Z" transform="translate(-332.99 -381.47)"/><g id="mu"><path class="cls-2" d="M383.22,389.57a7.94,7.94,0,0,1,.09,1.38,19.24,19.24,0,0,0,.51,4c.19.13.44,0,.56-.23a1.76,1.76,0,0,0,.15-.8,22,22,0,0,0-.34-2.42c-.07-.67-.05-1.36-.13-2-.06-.46-.2-1-.53-1.14-.17-.09-.72-.11-.76.22C382.75,388.71,383.17,389.35,383.22,389.57Z" transform="translate(-332.99 -381.47)"/><path class="cls-3" d="M385.05,393.88a1.23,1.23,0,0,0-.15.8c.13.35.52.15.66-.09a1.82,1.82,0,0,0,.21-.62,24.87,24.87,0,0,0,.44-4,2.57,2.57,0,0,0-.27-1.58.91.91,0,0,0-1.21-.29c-.1.05.35.59.36.62a3.46,3.46,0,0,1,.19,1.17c0,.89,0,1.81,0,2.71a2.72,2.72,0,0,1-.06.81A3.79,3.79,0,0,1,385.05,393.88Z" transform="translate(-332.99 -381.47)"/><path class="cls-2" d="M386.92,391.72a16.56,16.56,0,0,0-.67,2.78.52.52,0,0,0,0,.18.32.32,0,0,0,.14.12c.21.09.47.18.64,0a1,1,0,0,0,.15-.29,17.74,17.74,0,0,0,.72-4l.12-1.16a1.75,1.75,0,0,0,0-.56,1.32,1.32,0,0,0-.18-.33,1.09,1.09,0,0,0-1.17-.51A5.39,5.39,0,0,1,386.92,391.72Z" transform="translate(-332.99 -381.47)"/><path class="cls-2" d="M386.56,390.5a1.82,1.82,0,0,1,1.63.27,1.63,1.63,0,0,1,.44.83,7,7,0,0,1-1.71.11,29.58,29.58,0,0,0-5.63,1,2.23,2.23,0,0,1-2.07-.83c.34-.25,1.1-.17,1.52-.26s1-.24,1.51-.33C383.68,391,385.12,390.73,386.56,390.5Z" transform="translate(-332.99 -381.47)"/><path class="cls-2" d="M381.49,395.21a1,1,0,0,1,.45-.09,19.84,19.84,0,0,0,2.79-.67,3.56,3.56,0,0,1,2.79.24.45.45,0,0,1,.22.23.43.43,0,0,1-.26.52,1,1,0,0,1-.54-.1,3.44,3.44,0,0,0-1.77.08l-2.92.65a1.81,1.81,0,0,1-.61.06C381,396.05,380.84,395.55,381.49,395.21Z" transform="translate(-332.99 -381.47)"/><path class="cls-2" d="M380,398.22a2.67,2.67,0,0,1,.16.69,2.73,2.73,0,0,1-.62,1.68c0,.06-.09.12-.15.13a.14.14,0,0,1-.11,0,1.09,1.09,0,0,1-.45-1,3.09,3.09,0,0,1,.32-1.17c.07-.17.31-1,.46-1S379.9,398,380,398.22Z" transform="translate(-332.99 -381.47)"/><path class="cls-2" d="M381.76,398a4.17,4.17,0,0,0,.18,1.28,1.29,1.29,0,0,0,.24.5.36.36,0,0,0,.43.12.82.82,0,0,0,.27-.43,4.19,4.19,0,0,0,.17-1.06.88.88,0,0,0-.05-.4.76.76,0,0,0-.18-.25c-.3-.3-.68-.74-1.07-.73C381.73,397.33,381.76,397.67,381.76,398Z" transform="translate(-332.99 -381.47)"/><path class="cls-2" d="M384.31,398.25a2.33,2.33,0,0,0,.45.87,2,2,0,0,0,.25.37.25.25,0,0,0,.35.06.67.67,0,0,0,.16-.44,3.07,3.07,0,0,0-.07-1.57,2.46,2.46,0,0,0-.19-.32c-.18-.26-.75-1.1-1-.71-.09.15,0,.53,0,.69C384.35,397.54,384.27,397.91,384.31,398.25Z" transform="translate(-332.99 -381.47)"/><path class="cls-2" d="M387.13,397.93a3.38,3.38,0,0,0,.17.54,1,1,0,0,0,.86.66.37.37,0,0,0,.3-.15.48.48,0,0,0,.07-.2,1.77,1.77,0,0,0-.17-1.14,2.41,2.41,0,0,0-.29-.4l-.34-.41a1.14,1.14,0,0,0-.16-.15.58.58,0,0,0-.18-.08c-.23-.08-.7-.39-.89-.18A10.19,10.19,0,0,1,387.13,397.93Z" transform="translate(-332.99 -381.47)"/><path class="cls-2" d="M380.68,389.15a6.41,6.41,0,0,0,1.46-1.74c.06-.1.13-.22.22-.23a.33.33,0,0,1,.17,0,2.2,2.2,0,0,0,1.49-.1l1.48-.45a1.06,1.06,0,0,1,.46-.07,1.73,1.73,0,0,1,.32.11.65.65,0,0,0,.82-.69.71.71,0,0,0-.69-.6,3.83,3.83,0,0,0-1.68.34l-1.51.56a.78.78,0,0,1-.47.06.42.42,0,0,1-.27-.45,3.21,3.21,0,0,1,.12-.33.65.65,0,0,0-.46-.71c-.56-.17-.76-.36-.9.43-.12.63-.23,1.26-.34,1.89s-.26,1.21-.42,1.82-.16.36.2.41.42.16.54.82.29,1.52.44,2.28c.11.56.21,1.12.27,1.7s.09,1,.4,1.13.6-.15.71-.53a2.93,2.93,0,0,0,0-1.18l-.12-.89a19.14,19.14,0,0,0-.63-3.24,1,1,0,0,0-.23-.45.68.68,0,0,0-.48-.14h-.79c-.14,0-.32,0-.35.22a.9.9,0,0,1,.5.24" transform="translate(-332.99 -381.47)"/></g></svg>