<?xml version="1.0" standalone="no"?>
<!DOCTYPE svg PUBLIC "-//W3C//DTD SVG 1.1//EN" "http://www.w3.org/Graphics/SVG/1.1/DTD/svg11.dtd">
<svg xmlns="http://www.w3.org/2000/svg" id="full_logo_all_in" data-name="full logo all in" viewBox="0 0 13.66 22.43" width="13.65999984741211" height="22.43000030517578"><defs><style>.cls-1{fill:#eeb31e;}.cls-2{fill:#221f1f;}</style></defs><path class="cls-1" d="M325.37,409.59c-1.46-1.67-4.57-.7-6.53-1-1.16-.17-2.35-.38-3.35.45s-1.1,2.15-1.19,3.37l-.71,9.34-.23,3.08a10.9,10.9,0,0,0,.06,3,3.65,3.65,0,0,0,1.59,2.46,5.43,5.43,0,0,0,2.77.52l3.86,0a5.3,5.3,0,0,0,3.34-.72c1.07-.83,1.33-2.32,1.48-3.67a46.83,46.83,0,0,0-.21-14.76A4.46,4.46,0,0,0,325.37,409.59Z" transform="translate(-313.28 -408.47)"/><g id="mu"><path class="cls-2" d="M319.22,416.57a7.94,7.94,0,0,1,.09,1.38,19.24,19.24,0,0,0,.51,4c.19.13.44,0,.56-.23a1.76,1.76,0,0,0,.15-.8,22,22,0,0,0-.34-2.42c-.07-.67-.05-1.36-.13-2-.06-.46-.2-1-.53-1.14-.17-.09-.72-.11-.76.22C318.75,415.71,319.17,416.35,319.22,416.57Z" transform="translate(-313.28 -408.47)"/><path class="cls-2" d="M321.05,420.88a1.23,1.23,0,0,0-.15.8c.13.35.52.15.66-.09a1.82,1.82,0,0,0,.21-.62,24.87,24.87,0,0,0,.44-4,2.57,2.57,0,0,0-.27-1.58.91.91,0,0,0-1.21-.29c-.1.05.35.59.36.62a3.46,3.46,0,0,1,.19,1.17c0,.89,0,1.81,0,2.71a2.72,2.72,0,0,1-.06.81A3.79,3.79,0,0,1,321.05,420.88Z" transform="translate(-313.28 -408.47)"/><path class="cls-2" d="M322.92,418.72a16.56,16.56,0,0,0-.67,2.78.52.52,0,0,0,0,.18.32.32,0,0,0,.14.12c.21.09.47.18.64,0a1,1,0,0,0,.15-.29,17.74,17.74,0,0,0,.72-4l.12-1.16a1.75,1.75,0,0,0,0-.56,1.32,1.32,0,0,0-.18-.33,1.09,1.09,0,0,0-1.17-.51A5.39,5.39,0,0,1,322.92,418.72Z" transform="translate(-313.28 -408.47)"/><path class="cls-2" d="M322.56,417.5a1.82,1.82,0,0,1,1.63.27,1.63,1.63,0,0,1,.44.83,7,7,0,0,1-1.71.11,29.58,29.58,0,0,0-5.63,1,2.23,2.23,0,0,1-2.07-.83c.34-.25,1.1-.17,1.52-.26s1-.24,1.51-.33C319.68,418,321.12,417.73,322.56,417.5Z" transform="translate(-313.28 -408.47)"/><path class="cls-2" d="M317.49,422.21a1,1,0,0,1,.45-.09,19.84,19.84,0,0,0,2.79-.67,3.56,3.56,0,0,1,2.79.24.45.45,0,0,1,.22.23.43.43,0,0,1-.26.52,1,1,0,0,1-.54-.1,3.44,3.44,0,0,0-1.77.08l-2.92.65a1.81,1.81,0,0,1-.61.06C317,423.05,316.84,422.55,317.49,422.21Z" transform="translate(-313.28 -408.47)"/><path class="cls-2" d="M316,425.22a2.67,2.67,0,0,1,.16.69,2.73,2.73,0,0,1-.62,1.68c0,.06-.09.12-.15.13a.14.14,0,0,1-.11,0,1.09,1.09,0,0,1-.45-1,3.09,3.09,0,0,1,.32-1.17c.07-.17.31-1,.46-1S315.9,425,316,425.22Z" transform="translate(-313.28 -408.47)"/><path class="cls-2" d="M317.76,425a4.17,4.17,0,0,0,.18,1.28,1.29,1.29,0,0,0,.24.5.36.36,0,0,0,.43.12.82.82,0,0,0,.27-.43,4.19,4.19,0,0,0,.17-1.06.88.88,0,0,0-.05-.4.76.76,0,0,0-.18-.25c-.3-.3-.68-.74-1.07-.73C317.73,424.33,317.76,424.67,317.76,425Z" transform="translate(-313.28 -408.47)"/><path class="cls-2" d="M320.31,425.25a2.33,2.33,0,0,0,.45.87,2,2,0,0,0,.25.37.25.25,0,0,0,.35.06.67.67,0,0,0,.16-.44,3.07,3.07,0,0,0-.07-1.57,2.46,2.46,0,0,0-.19-.32c-.18-.26-.75-1.1-1-.71-.09.15,0,.53,0,.69C320.35,424.54,320.27,424.91,320.31,425.25Z" transform="translate(-313.28 -408.47)"/><path class="cls-2" d="M323.13,424.93a3.38,3.38,0,0,0,.17.54,1,1,0,0,0,.86.66.37.37,0,0,0,.3-.15.48.48,0,0,0,.07-.2,1.77,1.77,0,0,0-.17-1.14,2.41,2.41,0,0,0-.29-.4l-.34-.41a1.14,1.14,0,0,0-.16-.15.58.58,0,0,0-.18-.08c-.23-.08-.7-.39-.89-.18A10.19,10.19,0,0,1,323.13,424.93Z" transform="translate(-313.28 -408.47)"/><path class="cls-2" d="M316.68,416.15a6.41,6.41,0,0,0,1.46-1.74c.06-.1.13-.22.22-.23a.33.33,0,0,1,.17,0,2.2,2.2,0,0,0,1.49-.1l1.48-.45a1.06,1.06,0,0,1,.46-.07,1.73,1.73,0,0,1,.32.11.65.65,0,0,0,.82-.69.71.71,0,0,0-.69-.6,3.83,3.83,0,0,0-1.68.34l-1.51.56a.78.78,0,0,1-.47.06.42.42,0,0,1-.27-.45,3.21,3.21,0,0,1,.12-.33.65.65,0,0,0-.46-.71c-.56-.17-.76-.36-.9.43-.12.63-.23,1.26-.34,1.89s-.26,1.21-.42,1.82-.16.36.2.41.42.16.54.82.29,1.52.44,2.28c.11.56.21,1.12.27,1.7s.09,1,.4,1.13.6-.15.71-.53a2.93,2.93,0,0,0,0-1.18l-.12-.89a19.14,19.14,0,0,0-.63-3.24,1,1,0,0,0-.23-.45.68.68,0,0,0-.48-.14h-.79c-.14,0-.32,0-.35.22a.9.9,0,0,1,.5.24" transform="translate(-313.28 -408.47)"/></g></svg>